<?xml version="1.0" encoding="utf-8"?>
<svg viewBox="0 0 351 365" width="351px" height="365px" xmlns="http://www.w3.org/2000/svg">
  <defs>
    <clipPath id="clippath0" transform="">
      <path d="M 0 215.989 L 456.895 215.989 L 456.895 0 L 0 0 Z" style="fill: none; clip-rule: nonzero;"/>
    </clipPath>
    <clipPath id="clippath1" transform="">
      <path d="M 256.811 112.836 C 198.163 112.835 142.861 106.52 96.175 93.973 L 96.175 93.973 C 182.098 111.485 295.625 110.191 393.954 89.366 L 393.954 89.366 L 409.717 99.238 C 358.452 108.32 306.442 112.836 256.826 112.836 L 256.826 112.836 C 256.82 112.836 256.818 112.836 256.811 112.836 M 228.55 103.494 C 169.725 103.492 113.508 97.133 68.146 84.549 L 68.146 84.549 C 156.692 101.695 254.959 100.193 355.029 79.999 L 355.029 79.999 L 372.419 90.887 C 325.658 99.316 276.263 103.494 228.58 103.494 L 228.58 103.494 C 228.568 103.494 228.561 103.494 228.55 103.494 M 47.179 77.397 C 130.492 92.563 222.359 90.405 315.968 71.292 L 315.968 71.292 L 332.149 81.601 C 285.817 89.685 239.99 93.726 195.501 93.727 L 195.501 93.727 C 143.853 93.728 94.006 88.285 47.179 77.397" style="fill: none; clip-rule: nonzero;"/>
    </clipPath>
    <linearGradient id="shading0" gradientUnits="userSpaceOnUse" x1="0" y1="0" x2="1" y2="0">
      <stop offset="0" style="stop-color: rgb(255, 255, 255);"/>
      <stop offset="0.1" style="stop-color: rgb(237, 245, 225);"/>
      <stop offset="0.2" style="stop-color: rgb(219, 236, 195);"/>
      <stop offset="0.3" style="stop-color: rgb(201, 228, 166);"/>
      <stop offset="0.4" style="stop-color: rgb(184, 220, 138);"/>
      <stop offset="0.5" style="stop-color: rgb(163, 209, 113);"/>
      <stop offset="0.6" style="stop-color: rgb(126, 182, 99);"/>
      <stop offset="0.7" style="stop-color: rgb(94, 161, 88);"/>
      <stop offset="0.8" style="stop-color: rgb(68, 143, 80);"/>
      <stop offset="0.9" style="stop-color: rgb(48, 129, 73);"/>
      <stop offset="1" style="stop-color: rgb(35, 121, 69);"/>
    </linearGradient>
    <clipPath id="clippath2" transform="">
      <path d="M 0 215.989 L 456.895 215.989 L 456.895 0 L 0 0 Z" style="fill: none; clip-rule: nonzero;"/>
    </clipPath>
  </defs>
  <g transform="matrix(1.031248, 0, 0, -1.04311, -72.018913, 272.354858)" style="">
    <g transform="">
      <path d="M 0 215.989 L 456.895 215.989 L 456.895 0 L 0 0 Z" style="fill: none;"/>
    </g>
    <g style="clip-path: url(#clippath0);">
      <g transform="translate(190.4874 136.9385)">
        <path d="M 0 0 L -14.786 30.887 L -32.344 30.887 L -32.344 -9.895 L -22.083 -9.895 L -22.083 22.731 L -6.619 -9.895 L 6.418 -9.895 L 22.06 22.731 L 22.06 -9.895 L 32.313 -9.895 L 32.313 30.887 L 14.593 30.887 Z M -85.343 18.209 L -85.343 2.428 C -85.343 -4.342 -79.771 -9.895 -72.831 -9.895 L -37.025 -9.895 L -37.025 -1.905 L -71.61 -1.905 C -73.516 -1.905 -75.259 -0.347 -75.259 1.739 L -75.259 18.906 C -75.259 20.993 -73.516 22.731 -71.61 22.731 L -37.025 22.731 L -37.025 30.887 L -72.831 30.887 C -79.771 30.887 -85.343 25.157 -85.343 18.209 M 99.747 -10.056 L 111.554 -10.056 L 115.219 -3.813 L 140.58 -3.813 L 135.717 4.337 L 119.897 4.337 L 130.497 22.731 L 149.439 -10.056 L 161.263 -10.056 L 137.794 30.887 L 123.386 30.887 Z M 59.244 30.887 L 73.676 30.887 L 97.13 -10.056 L 85.323 -10.056 L 66.372 22.731 L 55.772 4.337 L 71.583 4.337 L 76.286 -3.813 L 51.077 -3.813 L 47.43 -10.056 L 35.605 -10.056 Z" style="fill: rgb(44, 46, 53); fill-opacity: 1; stroke: rgb(255, 255, 255);"/>
      </g>
    </g>
    <g transform="">
      <path d="M 256.811 112.836 C 198.163 112.835 142.861 106.52 96.175 93.973 L 96.175 93.973 C 182.098 111.485 295.625 110.191 393.954 89.366 L 393.954 89.366 L 409.717 99.238 C 358.452 108.32 306.442 112.836 256.826 112.836 L 256.826 112.836 C 256.82 112.836 256.818 112.836 256.811 112.836 M 228.55 103.494 C 169.725 103.492 113.508 97.133 68.146 84.549 L 68.146 84.549 C 156.692 101.695 254.959 100.193 355.029 79.999 L 355.029 79.999 L 372.419 90.887 C 325.658 99.316 276.263 103.494 228.58 103.494 L 228.58 103.494 C 228.568 103.494 228.561 103.494 228.55 103.494 M 47.179 77.397 C 130.492 92.563 222.359 90.405 315.968 71.292 L 315.968 71.292 L 332.149 81.601 C 285.817 89.685 239.99 93.726 195.501 93.727 L 195.501 93.727 C 143.853 93.728 94.006 88.285 47.179 77.397" style="fill: none;"/>
    </g>
    <g style="clip-path: url(#clippath1);">
      <g transform="matrix(362.5379639 0 0 362.5379639 47.1784935 92.0644302)">
        <rect x="-0.13013393960863473" y="-0.2539442468579496" width="1.2602680146513614" height="0.595769330407496" style="fill: url(#shading0);"/>
      </g>
    </g>
    <g transform="">
      <path d="M 0 215.989 L 456.895 215.989 L 456.895 0 L 0 0 Z" style="fill: none;"/>
    </g>
    <g style="clip-path: url(#clippath2);">
      <g transform="translate(113.504 53.4102)">
        <path d="M 0 0 L 1.044 0 C 1.017 -0.731 0.974 -1.234 0.914 -1.51 C 0.784 -2.108 0.386 -2.476 -0.283 -2.613 C -0.83 -2.724 -1.789 -2.778 -3.162 -2.778 C -4.976 -2.778 -6.198 -2.716 -6.831 -2.59 C -7.535 -2.448 -7.972 -2.047 -8.141 -1.387 C -8.286 -0.828 -8.359 0.016 -8.359 1.145 C -8.359 2.431 -8.28 3.364 -8.123 3.946 C -7.935 4.635 -7.449 5.036 -6.666 5.15 C -5.911 5.264 -4.806 5.321 -3.351 5.321 C -1.955 5.321 -0.956 5.252 -0.354 5.114 C 0.11 5.009 0.456 4.776 0.685 4.419 C 0.826 4.194 0.906 3.825 0.926 3.31 C 0.93 3.247 0.934 3.022 0.937 2.637 L -0.06 2.637 C -0.063 2.774 -0.065 2.865 -0.065 2.908 C -0.065 3.325 -0.108 3.614 -0.194 3.775 C -0.324 4.008 -0.657 4.165 -1.191 4.247 C -1.672 4.318 -2.405 4.354 -3.393 4.354 C -4.536 4.354 -5.445 4.314 -6.117 4.235 C -6.558 4.181 -6.845 4.037 -6.979 3.805 C -7.172 3.459 -7.268 2.714 -7.268 1.569 C -7.268 1.239 -7.254 0.813 -7.227 0.292 C -7.199 -0.229 -7.172 -0.588 -7.145 -0.784 C -7.081 -1.236 -6.893 -1.514 -6.578 -1.616 C -6.196 -1.746 -5.207 -1.811 -3.61 -1.811 C -2.104 -1.811 -1.109 -1.75 -0.625 -1.628 C -0.322 -1.554 -0.14 -1.378 -0.077 -1.104 C -0.041 -0.937 -0.016 -0.57 0 0" style="fill: rgb(44, 46, 53); fill-opacity: 1; stroke: rgb(255, 255, 255);"/>
      </g>
    </g>
    <g style="clip-path: url(#clippath2);">
      <g transform="">
        <path d="M 115.433 58.708 L 116.507 58.708 L 116.507 50.655 L 115.433 50.655 Z" style="fill: rgb(44, 46, 53); fill-opacity: 1; stroke: rgb(255, 255, 255);"/>
      </g>
      <g transform="translate(125.1671 53.2979)">
        <path d="M 0 0 L -2.508 4.466 L -2.938 4.466 L -5.48 0 Z M 1.469 -2.643 L 0.513 -0.943 L -6 -0.943 L -6.962 -2.643 L -8.177 -2.643 L -3.61 5.41 L -1.895 5.41 L 2.66 -2.643 Z" style="fill: rgb(44, 46, 53); fill-opacity: 1; stroke: rgb(255, 255, 255);"/>
      </g>
      <g transform="translate(131.3253 58.708)">
        <path d="M 0 0 L 2.147 0 L 6.519 -6.826 L 10.819 0 L 12.979 0 L 12.979 -8.053 L 11.905 -8.053 L 11.905 -0.997 L 11.456 -0.997 L 6.961 -8.053 L 6.088 -8.053 L 1.546 -0.997 L 1.074 -0.997 L 1.074 -8.053 L 0 -8.053 Z" style="fill: rgb(44, 46, 53); fill-opacity: 1; stroke: rgb(255, 255, 255);"/>
      </g>
      <g transform="">
        <path d="M 145.507 58.708 L 146.581 58.708 L 146.581 50.655 L 145.507 50.655 Z" style="fill: rgb(44, 46, 53); fill-opacity: 1; stroke: rgb(255, 255, 255);"/>
      </g>
      <g transform="translate(147.7842 58.708)">
        <path d="M 0 0 L 1.787 0 L 8.843 -7.062 L 9.091 -7.062 L 9.091 0 L 10.164 0 L 10.164 -8.053 L 8.348 -8.053 L 1.31 -1.009 L 1.074 -1.009 L 1.074 -8.053 L 0 -8.053 Z" style="fill: rgb(44, 46, 53); fill-opacity: 1; stroke: rgb(255, 255, 255);"/>
      </g>
      <g transform="translate(159.1583 50.6553)">
        <path d="M 0 0 L 0 8.053 L 7.893 8.053 L 7.893 7.108 L 1.073 7.108 L 1.073 4.648 L 7.604 4.648 L 7.604 3.705 L 1.073 3.705 L 1.073 0.944 L 7.898 0.944 L 7.898 0 Z" style="fill: rgb(44, 46, 53); fill-opacity: 1; stroke: rgb(255, 255, 255);"/>
      </g>
      <g transform="">
        <path d="M 167.824 58.708 L 168.897 58.708 L 168.897 50.655 L 167.824 50.655 Z" style="fill: rgb(44, 46, 53); fill-opacity: 1; stroke: rgb(255, 255, 255);"/>
      </g>
      <g transform="translate(171.1749 54.6963)">
        <path d="M 0 0 L 3.946 0 C 4.984 0 5.685 0.02 6.047 0.059 C 6.573 0.118 6.889 0.336 6.99 0.714 C 7.058 0.97 7.091 1.267 7.091 1.604 C 7.091 2.21 6.963 2.604 6.707 2.784 C 6.534 2.906 6.288 2.981 5.97 3.009 C 5.521 3.048 4.847 3.067 3.946 3.067 L 0 3.067 Z M -1.074 -4.041 L -1.074 4.012 L 3.946 4.012 C 5.308 3.996 6.177 3.962 6.554 3.911 C 7.219 3.824 7.679 3.525 7.935 3.015 C 8.104 2.672 8.188 2.202 8.188 1.604 C 8.188 1.038 8.148 0.619 8.07 0.348 C 7.933 -0.108 7.529 -0.407 6.86 -0.549 C 7.207 -0.607 7.482 -0.741 7.687 -0.95 C 7.797 -1.067 7.876 -1.195 7.926 -1.333 C 7.975 -1.471 8.009 -1.662 8.028 -1.905 C 8.041 -2.043 8.047 -2.373 8.047 -2.896 L 8.047 -4.041 L 6.973 -4.041 L 6.973 -3.269 C 6.973 -2.611 6.959 -2.157 6.932 -1.905 C 6.853 -1.395 6.563 -1.096 6.064 -1.009 C 5.832 -0.974 5.533 -0.954 5.168 -0.95 L 3.946 -0.944 L 0 -0.944 L 0 -4.041 Z" style="fill: rgb(44, 46, 53); fill-opacity: 1; stroke: rgb(255, 255, 255);"/>
      </g>
      <g transform="translate(187.8282 53.2979)">
        <path d="M 0 0 L -2.507 4.466 L -2.938 4.466 L -5.48 0 Z M 1.469 -2.643 L 0.514 -0.943 L -5.999 -0.943 L -6.961 -2.643 L -8.176 -2.643 L -3.61 5.41 L -1.894 5.41 L 2.661 -2.643 Z" style="fill: rgb(44, 46, 53); fill-opacity: 1; stroke: rgb(255, 255, 255);"/>
      </g>
      <g transform="translate(195.0606 51.5996)">
        <path d="M 0 0 L 4.519 0 C 5.412 0 5.964 0.012 6.177 0.035 C 6.652 0.094 6.999 0.239 7.215 0.472 C 7.604 0.889 7.799 1.775 7.799 3.132 C 7.799 4.398 7.636 5.232 7.31 5.634 C 7.187 5.787 7.026 5.901 6.825 5.979 C 6.625 6.055 6.352 6.109 6.006 6.141 C 5.801 6.156 5.288 6.164 4.466 6.164 L 0 6.164 Z M -1.073 -0.944 L -1.073 7.108 L 4.483 7.108 C 5.715 7.108 6.58 7.057 7.079 6.955 C 7.681 6.833 8.139 6.513 8.454 5.993 C 8.658 5.655 8.79 5.149 8.849 4.478 C 8.881 4.115 8.896 3.649 8.896 3.079 C 8.896 2.096 8.808 1.315 8.631 0.737 C 8.355 -0.152 7.77 -0.673 6.873 -0.826 C 6.409 -0.905 5.64 -0.944 4.566 -0.944 Z" style="fill: rgb(44, 46, 53); fill-opacity: 1; stroke: rgb(255, 255, 255);"/>
      </g>
      <g transform="translate(205.001 50.6553)">
        <path d="M 0 0 L 0 8.053 L 7.894 8.053 L 7.894 7.108 L 1.073 7.108 L 1.073 4.648 L 7.604 4.648 L 7.604 3.705 L 1.073 3.705 L 1.073 0.944 L 7.899 0.944 L 7.899 0 Z" style="fill: rgb(44, 46, 53); fill-opacity: 1; stroke: rgb(255, 255, 255);"/>
      </g>
      <g transform="translate(224.1436 53.2979)">
        <path d="M 0 0 L -2.507 4.466 L -2.938 4.466 L -5.48 0 Z M 1.47 -2.643 L 0.514 -0.943 L -5.999 -0.943 L -6.961 -2.643 L -8.176 -2.643 L -3.61 5.41 L -1.894 5.41 L 2.661 -2.643 Z" style="fill: rgb(44, 46, 53); fill-opacity: 1; stroke: rgb(255, 255, 255);"/>
      </g>
      <g transform="translate(231.5176 50.6377)">
        <path d="M 0 0 L 0 -0.207 C 0 -0.415 0.017 -0.541 0.048 -0.584 C 0.075 -0.623 0.191 -0.646 0.396 -0.649 L 0.855 -0.649 C 0.989 -0.649 1.09 -0.677 1.156 -0.731 C 1.216 -0.779 1.245 -0.898 1.245 -1.092 L 1.245 -1.858 C 1.253 -2.291 1.057 -2.495 0.655 -2.472 L -0.625 -2.472 L -0.625 -1.929 L 0.225 -1.929 C 0.409 -1.929 0.527 -1.907 0.578 -1.864 C 0.603 -1.833 0.62 -1.723 0.632 -1.534 C 0.624 -1.365 0.606 -1.267 0.578 -1.239 C 0.535 -1.195 0.417 -1.174 0.225 -1.174 L -0.412 -1.174 C -0.487 -1.174 -0.54 -1.156 -0.572 -1.121 C -0.588 -1.105 -0.598 -1.034 -0.602 -0.908 L -0.602 0.012 L -1.015 0.018 C -1.884 0.029 -2.556 0.084 -3.032 0.183 C -3.735 0.328 -4.172 0.729 -4.342 1.386 C -4.487 1.944 -4.56 2.786 -4.56 3.911 C -4.56 5.201 -4.481 6.137 -4.324 6.719 C -4.135 7.407 -3.649 7.809 -2.866 7.923 C -2.111 8.036 -1.007 8.094 0.449 8.094 C 1.845 8.094 2.842 8.024 3.439 7.887 C 3.907 7.781 4.256 7.549 4.483 7.191 C 4.625 6.967 4.706 6.598 4.726 6.082 C 4.729 6.02 4.733 5.795 4.737 5.409 L 3.74 5.409 C 3.736 5.547 3.734 5.638 3.734 5.681 C 3.73 6.098 3.688 6.387 3.604 6.548 C 3.475 6.78 3.143 6.937 2.607 7.02 C 2.128 7.091 1.395 7.126 0.407 7.126 C -0.741 7.126 -1.649 7.087 -2.318 7.008 C -2.759 6.953 -3.046 6.81 -3.18 6.577 C -3.372 6.231 -3.469 5.484 -3.469 4.336 C -3.469 4.01 -3.454 3.585 -3.427 3.062 C -3.399 2.538 -3.372 2.179 -3.345 1.982 C -3.281 1.529 -3.093 1.253 -2.778 1.15 C -2.396 1.021 -1.407 0.955 0.189 0.955 C 1.695 0.955 2.69 1.017 3.174 1.139 C 3.477 1.213 3.66 1.39 3.723 1.669 C 3.758 1.835 3.784 2.202 3.8 2.772 L 4.844 2.772 C 4.816 2.041 4.771 1.536 4.708 1.257 C 4.582 0.658 4.185 0.293 3.517 0.159 C 2.942 0.045 2.089 -0.012 0.956 -0.012 C 0.818 -0.012 0.5 -0.008 0 0" style="fill: rgb(44, 46, 53); fill-opacity: 1; stroke: rgb(255, 255, 255);"/>
      </g>
      <g transform="translate(242.8624 61.3975)">
        <path d="M 0 0 L 0.673 -0.979 L -1.274 -2.153 L -1.74 -1.498 Z M -5.692 -2.689 L -4.619 -2.689 L -4.619 -6.648 C -4.619 -7.816 -4.607 -8.521 -4.584 -8.76 C -4.541 -9.208 -4.361 -9.485 -4.047 -9.592 C -3.638 -9.729 -2.683 -9.798 -1.18 -9.798 C 0.26 -9.798 1.251 -9.755 1.793 -9.669 C 2.262 -9.594 2.54 -9.403 2.631 -9.097 C 2.69 -8.876 2.726 -8.434 2.737 -7.769 C 2.737 -7.694 2.739 -7.32 2.743 -6.648 L 2.743 -2.689 L 3.816 -2.689 L 3.816 -6.648 C 3.809 -7.722 3.789 -8.463 3.758 -8.872 C 3.715 -9.367 3.572 -9.757 3.33 -10.04 C 3.088 -10.323 2.741 -10.508 2.289 -10.595 C 1.903 -10.669 1.398 -10.715 0.772 -10.73 L -0.927 -10.766 C -2.35 -10.746 -3.247 -10.721 -3.616 -10.689 C -4.018 -10.649 -4.331 -10.586 -4.558 -10.497 C -4.783 -10.409 -4.978 -10.274 -5.139 -10.094 C -5.401 -9.798 -5.56 -9.438 -5.61 -9.014 C -5.657 -8.597 -5.685 -7.809 -5.692 -6.648 Z" style="fill: rgb(44, 46, 53); fill-opacity: 1; stroke: rgb(255, 255, 255);"/>
      </g>
      <g transform="translate(256.0059 53.4102)">
        <path d="M 0 0 L 1.044 0 C 1.017 -0.731 0.974 -1.234 0.914 -1.51 C 0.784 -2.108 0.386 -2.476 -0.283 -2.613 C -0.83 -2.724 -1.79 -2.778 -3.162 -2.778 C -4.976 -2.778 -6.198 -2.716 -6.831 -2.59 C -7.535 -2.448 -7.972 -2.047 -8.141 -1.387 C -8.286 -0.828 -8.359 0.016 -8.359 1.145 C -8.359 2.431 -8.28 3.364 -8.123 3.946 C -7.935 4.635 -7.449 5.036 -6.666 5.15 C -5.911 5.264 -4.806 5.321 -3.351 5.321 C -1.955 5.321 -0.956 5.252 -0.354 5.114 C 0.11 5.009 0.456 4.776 0.685 4.419 C 0.826 4.194 0.906 3.825 0.926 3.31 C 0.93 3.247 0.934 3.022 0.937 2.637 L -0.06 2.637 C -0.063 2.774 -0.065 2.865 -0.065 2.908 C -0.065 3.325 -0.108 3.614 -0.195 3.775 C -0.324 4.008 -0.657 4.165 -1.191 4.247 C -1.672 4.318 -2.405 4.354 -3.393 4.354 C -4.537 4.354 -5.445 4.314 -6.117 4.235 C -6.559 4.181 -6.846 4.037 -6.979 3.805 C -7.172 3.459 -7.268 2.714 -7.268 1.569 C -7.268 1.239 -7.254 0.813 -7.227 0.292 C -7.199 -0.229 -7.172 -0.588 -7.145 -0.784 C -7.081 -1.236 -6.893 -1.514 -6.578 -1.616 C -6.196 -1.746 -5.207 -1.811 -3.61 -1.811 C -2.104 -1.811 -1.109 -1.75 -0.625 -1.628 C -0.322 -1.554 -0.14 -1.378 -0.077 -1.104 C -0.041 -0.937 -0.016 -0.57 0 0" style="fill: rgb(44, 46, 53); fill-opacity: 1; stroke: rgb(255, 255, 255);"/>
      </g>
      <g transform="translate(265.4092 53.2979)">
        <path d="M 0 0 L -2.507 4.466 L -2.938 4.466 L -5.48 0 Z M 1.469 -2.643 L 0.513 -0.943 L -6 -0.943 L -6.961 -2.643 L -8.177 -2.643 L -3.61 5.41 L -1.894 5.41 L 2.66 -2.643 Z" style="fill: rgb(44, 46, 53); fill-opacity: 1; stroke: rgb(255, 255, 255);"/>
      </g>
      <g transform="translate(269.6212 54.6963)">
        <path d="M 0 0 L 3.946 0 C 4.985 0 5.685 0.02 6.047 0.059 C 6.574 0.118 6.889 0.336 6.99 0.714 C 7.058 0.97 7.091 1.267 7.091 1.604 C 7.091 2.21 6.963 2.604 6.707 2.784 C 6.534 2.906 6.289 2.981 5.97 3.009 C 5.521 3.048 4.848 3.067 3.946 3.067 L 0 3.067 Z M -1.073 -4.041 L -1.073 4.012 L 3.946 4.012 C 5.308 3.996 6.177 3.962 6.554 3.911 C 7.219 3.824 7.679 3.525 7.935 3.015 C 8.104 2.672 8.188 2.202 8.188 1.604 C 8.188 1.038 8.148 0.619 8.07 0.348 C 7.933 -0.108 7.529 -0.407 6.861 -0.549 C 7.207 -0.607 7.482 -0.741 7.687 -0.95 C 7.797 -1.067 7.877 -1.195 7.926 -1.333 C 7.975 -1.471 8.009 -1.662 8.029 -1.905 C 8.041 -2.043 8.047 -2.373 8.047 -2.896 L 8.047 -4.041 L 6.973 -4.041 L 6.973 -3.269 C 6.973 -2.611 6.959 -2.157 6.932 -1.905 C 6.853 -1.395 6.563 -1.096 6.064 -1.009 C 5.832 -0.974 5.533 -0.954 5.168 -0.95 L 3.946 -0.944 L 0 -0.944 L 0 -4.041 Z" style="fill: rgb(44, 46, 53); fill-opacity: 1; stroke: rgb(255, 255, 255);"/>
      </g>
      <g transform="translate(281.8389 50.6553)">
        <path d="M 0 0 L 0 8.053 L 7.893 8.053 L 7.893 7.108 L 1.073 7.108 L 1.073 4.648 L 7.604 4.648 L 7.604 3.705 L 1.073 3.705 L 1.073 0.944 L 7.898 0.944 L 7.898 0 Z" style="fill: rgb(44, 46, 53); fill-opacity: 1; stroke: rgb(255, 255, 255);"/>
      </g>
      <g transform="translate(299.1641 61.3975)">
        <path d="M 0 0 L 0.673 -0.979 L -1.273 -2.153 L -1.74 -1.498 Z M 1.817 -8.1 L -0.689 -3.634 L -1.12 -3.634 L -3.663 -8.1 Z M 3.286 -10.742 L 2.331 -9.043 L -4.182 -9.043 L -5.144 -10.742 L -6.359 -10.742 L -1.793 -2.689 L -0.076 -2.689 L 4.478 -10.742 Z" style="fill: rgb(44, 46, 53); fill-opacity: 1; stroke: rgb(255, 255, 255);"/>
      </g>
      <g transform="translate(304.1202 58.708)">
        <path d="M 0 0 L 1.073 0 L 1.073 -7.108 L 7.433 -7.108 L 7.433 -8.053 L 0 -8.053 Z" style="fill: rgb(44, 46, 53); fill-opacity: 1; stroke: rgb(255, 255, 255);"/>
      </g>
      <g transform="translate(320.4131 53.4102)">
        <path d="M 0 0 L 1.045 0 C 1.018 -0.731 0.974 -1.234 0.915 -1.51 C 0.785 -2.108 0.386 -2.476 -0.282 -2.613 C -0.829 -2.724 -1.789 -2.778 -3.161 -2.778 C -4.975 -2.778 -6.197 -2.716 -6.831 -2.59 C -7.535 -2.448 -7.972 -2.047 -8.141 -1.387 C -8.286 -0.828 -8.358 0.016 -8.358 1.145 C -8.358 2.431 -8.28 3.364 -8.123 3.946 C -7.934 4.635 -7.448 5.036 -6.666 5.15 C -5.91 5.264 -4.806 5.321 -3.351 5.321 C -1.954 5.321 -0.955 5.252 -0.354 5.114 C 0.11 5.009 0.457 4.776 0.685 4.419 C 0.826 4.194 0.907 3.825 0.927 3.31 C 0.931 3.247 0.935 3.022 0.938 2.637 L -0.059 2.637 C -0.062 2.774 -0.064 2.865 -0.064 2.908 C -0.064 3.325 -0.107 3.614 -0.194 3.775 C -0.324 4.008 -0.656 4.165 -1.191 4.247 C -1.671 4.318 -2.404 4.354 -3.392 4.354 C -4.536 4.354 -5.444 4.314 -6.117 4.235 C -6.558 4.181 -6.845 4.037 -6.979 3.805 C -7.171 3.459 -7.268 2.714 -7.268 1.569 C -7.268 1.239 -7.254 0.813 -7.227 0.292 C -7.198 -0.229 -7.171 -0.588 -7.144 -0.784 C -7.081 -1.236 -6.892 -1.514 -6.577 -1.616 C -6.195 -1.746 -5.207 -1.811 -3.61 -1.811 C -2.104 -1.811 -1.108 -1.75 -0.625 -1.628 C -0.322 -1.554 -0.139 -1.378 -0.076 -1.104 C -0.041 -0.937 -0.016 -0.57 0 0" style="fill: rgb(44, 46, 53); fill-opacity: 1; stroke: rgb(255, 255, 255);"/>
      </g>
      <g transform="translate(326.7969 57.7637)">
        <path d="M 0 0 C -1.055 0 -1.851 -0.045 -2.39 -0.136 C -2.826 -0.206 -3.102 -0.365 -3.216 -0.613 C -3.389 -0.999 -3.475 -1.793 -3.475 -2.997 C -3.475 -3.979 -3.439 -4.701 -3.369 -5.162 C -3.31 -5.535 -3.154 -5.781 -2.902 -5.899 C -2.659 -6.013 -2.203 -6.086 -1.534 -6.117 C -0.735 -6.152 -0.024 -6.171 0.602 -6.171 C 1.927 -6.171 2.879 -6.117 3.457 -6.011 C 3.7 -5.968 3.888 -5.882 4.017 -5.752 C 4.146 -5.622 4.235 -5.435 4.282 -5.191 C 4.373 -4.703 4.418 -4.002 4.418 -3.085 C 4.418 -2.688 4.406 -2.265 4.383 -1.816 C 4.359 -1.368 4.332 -1.063 4.3 -0.902 C 4.222 -0.462 3.917 -0.2 3.386 -0.118 C 3.004 -0.059 2.579 -0.025 2.111 -0.018 C 1.498 -0.006 0.794 0 0 0 M 0.755 0.968 C 2.348 0.968 3.448 0.896 4.059 0.755 C 4.503 0.649 4.843 0.413 5.079 0.048 C 5.366 -0.409 5.51 -1.465 5.51 -3.12 C 5.51 -4.123 5.456 -4.916 5.351 -5.498 C 5.205 -6.3 4.763 -6.782 4.022 -6.943 C 3.421 -7.073 2.526 -7.138 1.339 -7.138 C 0.65 -7.138 -0.086 -7.128 -0.87 -7.108 C -1.655 -7.089 -2.165 -7.069 -2.401 -7.05 C -2.803 -7.01 -3.119 -6.945 -3.352 -6.854 C -3.583 -6.765 -3.79 -6.623 -3.971 -6.43 C -4.183 -6.206 -4.324 -5.942 -4.396 -5.64 C -4.514 -5.14 -4.572 -4.291 -4.572 -3.091 C -4.572 -1.785 -4.483 -0.863 -4.307 -0.324 C -4.095 0.312 -3.608 0.688 -2.85 0.803 C -2.138 0.912 -0.937 0.968 0.755 0.968" style="fill: rgb(44, 46, 53); fill-opacity: 1; stroke: rgb(255, 255, 255);"/>
      </g>
      <g transform="translate(337.7637 57.7637)">
        <path d="M 0 0 C -1.055 0 -1.851 -0.045 -2.39 -0.136 C -2.826 -0.206 -3.102 -0.365 -3.216 -0.613 C -3.389 -0.999 -3.476 -1.793 -3.476 -2.997 C -3.476 -3.979 -3.439 -4.701 -3.369 -5.162 C -3.31 -5.535 -3.154 -5.781 -2.903 -5.899 C -2.659 -6.013 -2.203 -6.086 -1.534 -6.117 C -0.736 -6.152 -0.024 -6.171 0.602 -6.171 C 1.927 -6.171 2.878 -6.117 3.456 -6.011 C 3.7 -5.968 3.887 -5.882 4.017 -5.752 C 4.146 -5.622 4.235 -5.435 4.282 -5.191 C 4.373 -4.703 4.418 -4.002 4.418 -3.085 C 4.418 -2.688 4.406 -2.265 4.383 -1.816 C 4.359 -1.368 4.331 -1.063 4.3 -0.902 C 4.222 -0.462 3.917 -0.2 3.386 -0.118 C 3.004 -0.059 2.579 -0.025 2.111 -0.018 C 1.498 -0.006 0.794 0 0 0 M 0.755 0.968 C 2.348 0.968 3.448 0.896 4.059 0.755 C 4.503 0.649 4.843 0.413 5.079 0.048 C 5.366 -0.409 5.51 -1.465 5.51 -3.12 C 5.51 -4.123 5.456 -4.916 5.351 -5.498 C 5.205 -6.3 4.762 -6.782 4.022 -6.943 C 3.421 -7.073 2.526 -7.138 1.339 -7.138 C 0.65 -7.138 -0.086 -7.128 -0.871 -7.108 C -1.655 -7.089 -2.165 -7.069 -2.401 -7.05 C -2.803 -7.01 -3.119 -6.945 -3.352 -6.854 C -3.583 -6.765 -3.79 -6.623 -3.971 -6.43 C -4.183 -6.206 -4.324 -5.942 -4.396 -5.64 C -4.514 -5.14 -4.572 -4.291 -4.572 -3.091 C -4.572 -1.785 -4.484 -0.863 -4.307 -0.324 C -4.095 0.312 -3.608 0.688 -2.85 0.803 C -2.138 0.912 -0.937 0.968 0.755 0.968" style="fill: rgb(44, 46, 53); fill-opacity: 1; stroke: rgb(255, 255, 255);"/>
      </g>
      <g transform="translate(344.3174 58.708)">
        <path d="M 0 0 L 1.073 0 L 1.073 -7.108 L 7.433 -7.108 L 7.433 -8.053 L 0 -8.053 Z" style="fill: rgb(44, 46, 53); fill-opacity: 1; stroke: rgb(255, 255, 255);"/>
      </g>
    </g>
  </g>
</svg>